<svg viewBox="0 0 64 64" xml:space="preserve" xmlns="http://www.w3.org/2000/svg" enable-background="new 0 0 64 64"><path d="M-76.1-481.5h-39.8c-2.4 0-4.3-1.9-4.3-4.3v-28.5c0-2.4 1.9-4.3 4.3-4.3h39.8c2.4 0 4.3 1.9 4.3 4.3v28.5c0 2.4-1.9 4.3-4.3 4.3zm-39.8-34.2c-.8 0-1.4.6-1.4 1.4v28.5c0 .8.6 1.4 1.4 1.4h39.8c.8 0 1.4-.6 1.4-1.4v-28.5c0-.8-.6-1.4-1.4-1.4h-39.8z" transform="translate(128 532)" fill="#a9a8ff" class="fill-134563"></path><path d="M-118.8-512.8h45.6v8.5h-45.6zM-114.5-498.6h1.4v2.9h-1.4zM-111.7-498.6h1.5v2.9h-1.5zM-108.8-498.6h1.4v2.9h-1.4zM-104.5-498.6h1.4v2.9h-1.4zM-101.7-498.6h1.4v2.9h-1.4zM-98.8-498.6h1.4v2.9h-1.4zM-94.6-498.6h1.4v2.9h-1.4zM-91.7-498.6h1.4v2.9h-1.4zM-88.9-498.6h1.4v2.9h-1.4zM-84.6-498.6h1.4v2.9h-1.4zM-81.8-498.6h1.5v2.9h-1.5zM-78.9-498.6h1.4v2.9h-1.4z" transform="translate(128 532)" fill="#a9a8ff" class="fill-134563"></path></svg>