<svg viewBox="0 0 300 300" xml:space="preserve" xmlns="http://www.w3.org/2000/svg"><g fill="none" stroke="#a9a8ff" stroke-linecap="round" stroke-linejoin="round" stroke-miterlimit="10" stroke-width="6" class="stroke-000000"><path d="M155 80h21v21h-21zM115 80h21v21h-21zM155 117h21v21h-21zM115 117h21v21h-21zM155 153h21v21h-21zM115 153h21v21h-21zM162 229v-33h-33v33M227 104h19v19h-19zM227 138h19v19h-19zM227 171h19v18h-19z"></path><path d="M203 241h52.807c1.487 0 2.193-1.706 2.193-3.193V80.193c0-1.487-.706-2.193-2.193-2.193H203"></path><path d="M203 189h8v-18h-8M227 201h19v18h-19zM203 219h8v-18h-8M203 157h8v-19h-8M203 123h8v-19h-8M50 119h16v16H50zM50 148h16v16H50zM50 177h16v15H50z"></path><path d="M87 241H43.042C41.76 241 39 238.378 39 237.097V101.222c0-1.283 2.759-1.222 4.042-1.222H88"></path><path d="M88 192h-8v-15h8M50 202h16v16H50zM87 218h-7v-16h7M88 164h-8v-16h7M87 135h-7v-16h8M191 63a3 3 0 0 0-3-3h-85a3 3 0 0 0-3 3v175a3 3 0 0 0 3 3h85c1.657 0 3 .657 3-1V63z"></path></g><path fill="none" stroke="#a9a8ff" stroke-linecap="round" stroke-linejoin="round" stroke-miterlimit="10" stroke-width="6" d="M92 60h107M32 100h56M208 78h56" class="stroke-000000"></path></svg>